<svg viewBox="0 0 512 180" xmlns="http://www.w3.org/2000/svg" xml:space="preserve" style="fill-rule:evenodd;clip-rule:evenodd;stroke-linejoin:round;stroke-miterlimit:2"><path d="M23 240.616c1.529-.308 3.087-.439 4.65-.444v-.018h434.638L512 317.412H27.65v.018c-1.56.005-3.116.136-4.65.398v-77.212Z" style="fill:gold" transform="translate(0 -162)"/><path d="M23 240.616v77.212a26.949 26.949 0 0 0-4.375 1.111 27.76 27.76 0 0 0-17.061 16.957 26.572 26.572 0 0 0-1.18 4.644H0v-72.718l.001-.179a27.9 27.9 0 0 1 1.563-9.006 25.593 25.593 0 0 1 2.448-5.097 26.466 26.466 0 0 1 4.326-5.499l2.295-2.006 2.498-1.742 2.149-1.172a23.596 23.596 0 0 1 3.345-1.44c.726-.251 1.461-.47 2.203-.658l2.172-.407Z" style="fill:url(#a)" transform="translate(0 -162)"/><path d="M23 164.882a24.797 24.797 0 0 1 4.65-.422H512l-50 77.706.288.448H27.65v.018l-2.297.099-2.278.283-.075.015v-78.147Z" style="fill:#0057b8" transform="translate(0 -164.46)"/><path d="m23 243.029-2.172.454.09-.017c-.774.187-1.538.414-2.293.675a27.734 27.734 0 0 0-14.281 11.27l-1.553 2.762-1.227 2.924-.67 2.197c-.192.74-.353 1.488-.483 2.241l-.297 2.274-.113 2.294-.001.179V192.11c0-13.675 9.949-25.044 23-27.228v78.147Z" style="fill:url(#b)" transform="translate(0 -164.46)"/><g><path d="m.255-.265.023-.146h.139l-.023.146H.255Zm.096.267h.095l.023-.143h.15L.6-.268H.489l.022-.14h.124v-.127H.531l.021-.129L.46-.685l-.024.15H.299l.023-.143H.226l-.023.143h-.15l.021.127h.109l-.022.14H.038v.127h.103l-.02.129.092.021.024-.15h.137L.351.002Z" style="fill:#fff;fill-rule:nonzero" transform="translate(60 78.423) scale(41.25)"/><path d="M.523-.208c0-.11-.059-.162-.21-.217C.227-.458.208-.475.208-.51c0-.032.025-.054.077-.054.053 0 .118.02.18.056l.026-.144a.439.439 0 0 0-.208-.046c-.132 0-.236.071-.236.204 0 .114.06.159.198.212.097.037.117.055.117.094 0 .041-.034.062-.083.062A.49.49 0 0 1 .06-.19l-.025.146c.07.032.148.052.241.052.137 0 .247-.066.247-.216Z" style="fill:#fff;fill-rule:nonzero" transform="translate(87.761 78.423) scale(41.25)"/><path d="M.344-.003.326-.127a.144.144 0 0 1-.037.005c-.04 0-.06-.019-.06-.058v-.187h.112L.322-.49H.229v-.17l-.15.024v.146H.014v.123h.065v.211c0 .125.073.163.178.163.04 0 .063-.003.087-.01Z" style="fill:#fff;fill-rule:nonzero" transform="translate(110.572 78.423) scale(41.25)"/><path d="M.308-.135a.127.127 0 0 1-.083.037c-.029 0-.048-.017-.048-.048 0-.043.028-.077.131-.093v.104ZM.459 0v-.328c0-.125-.067-.17-.202-.17a.508.508 0 0 0-.199.038l.018.114a.385.385 0 0 1 .158-.037c.05 0 .074.019.074.062v.009c-.192.017-.28.071-.28.186 0 .089.055.136.133.136a.203.203 0 0 0 .154-.071L.325 0h.134Z" style="fill:#fff;fill-rule:nonzero" transform="translate(125.546 78.423) scale(41.25)"/><path d="M.488 0v-.348C.488-.444.44-.5.349-.5.287-.5.24-.467.196-.423L.185-.49H.052V0h.151v-.322C.23-.349.257-.366.286-.366c.036 0 .05.024.05.059V0h.152Z" style="fill:#fff;fill-rule:nonzero" transform="translate(146.46 78.423) scale(41.25)"/><path d="M.182-.242c0-.094.038-.133.088-.133a.15.15 0 0 1 .071.014v.187c-.026.029-.052.05-.084.05-.043 0-.075-.034-.075-.118ZM.03-.231c0 .165.077.241.177.241.063 0 .108-.037.141-.074L.358 0h.134v-.722l-.151.024v.221a.293.293 0 0 0-.104-.017c-.108 0-.207.076-.207.263Z" style="fill:#fff;fill-rule:nonzero" transform="translate(168.611 78.423) scale(41.25)"/><path d="M.972-.69h-.17l-.098.432L.592-.69H.42l-.112.432-.104-.439-.185.029.182.669h.172l.119-.446.119.446h.173L.972-.69Z" style="fill:#fff;fill-rule:nonzero" transform="translate(191.051 78.423) scale(41.25)"/><path d="M.217-.635c0-.05-.037-.083-.086-.083-.048 0-.086.033-.086.083 0 .049.038.081.086.081.049 0 .086-.032.086-.081ZM.207 0v-.49H.055V0h.152Z" style="fill:#fff;fill-rule:nonzero" transform="translate(231.146 78.423) scale(41.25)"/><path d="M.344-.003.326-.127a.144.144 0 0 1-.037.005c-.04 0-.06-.019-.06-.058v-.187h.112L.322-.49H.229v-.17l-.15.024v.146H.014v.123h.065v.211c0 .125.073.163.178.163.04 0 .063-.003.087-.01Z" style="fill:#fff;fill-rule:nonzero" transform="translate(241.954 78.423) scale(41.25)"/><path d="M.488 0v-.348C.488-.444.44-.5.349-.5c-.06 0-.105.031-.146.071v-.293l-.151.024V0h.151v-.322C.23-.349.257-.366.286-.366c.036 0 .05.024.05.059V0h.152Z" style="fill:#fff;fill-rule:nonzero" transform="translate(256.927 78.423) scale(41.25)"/><path d="M.633-.274V-.69H.461v.418c0 .088-.039.139-.117.139-.077 0-.117-.052-.117-.141V-.69H.055v.417c0 .193.118.284.287.284.167 0 .291-.093.291-.285Z" style="fill:gold;fill-rule:nonzero" transform="translate(279.079 78.423) scale(41.25)"/><path d="m.344.007.158-.022-.16-.25.156-.225H.332l-.129.2v-.432l-.151.024V0h.151v-.229l.141.236Z" style="fill:gold;fill-rule:nonzero" transform="translate(307.459 78.423) scale(41.25)"/><path d="M.368-.346.343-.5C.271-.495.23-.449.2-.393L.184-.49H.052V0h.151v-.272a.241.241 0 0 1 .165-.074Z" style="fill:gold;fill-rule:nonzero" transform="translate(328.29 78.423) scale(41.25)"/><path d="M.308-.135a.127.127 0 0 1-.083.037c-.029 0-.048-.017-.048-.048 0-.043.028-.077.131-.093v.104ZM.459 0v-.328c0-.125-.067-.17-.202-.17a.508.508 0 0 0-.199.038l.018.114a.385.385 0 0 1 .158-.037c.05 0 .074.019.074.062v.009c-.192.017-.28.071-.28.186 0 .089.055.136.133.136a.203.203 0 0 0 .154-.071L.325 0h.134Z" style="fill:gold;fill-rule:nonzero" transform="translate(343.099 78.423) scale(41.25)"/><path d="M.217-.635c0-.05-.037-.083-.086-.083-.048 0-.086.033-.086.083 0 .049.038.081.086.081.049 0 .086-.032.086-.081ZM.207 0v-.49H.055V0h.152Z" style="fill:gold;fill-rule:nonzero" transform="translate(364.012 78.423) scale(41.25)"/><path d="M.488 0v-.348C.488-.444.44-.5.349-.5.287-.5.24-.467.196-.423L.185-.49H.052V0h.151v-.322C.23-.349.257-.366.286-.366c.036 0 .05.024.05.059V0h.152Z" style="fill:gold;fill-rule:nonzero" transform="translate(374.82 78.423) scale(41.25)"/><path d="M.255-.402c.046 0 .072.038.077.112H.178c.004-.076.035-.112.077-.112Zm.22.357L.46-.152A.318.318 0 0 1 .299-.1C.233-.1.186-.13.178-.207h.296a.368.368 0 0 0 .002-.039C.476-.388.41-.5.259-.5c-.133 0-.231.097-.231.257 0 .174.105.253.252.253a.355.355 0 0 0 .195-.055Z" style="fill:gold;fill-rule:nonzero" transform="translate(396.971 78.423) scale(41.25)"/></g><defs><linearGradient id="a" x1="0" y1="0" x2="1" y2="0" gradientUnits="userSpaceOnUse" gradientTransform="matrix(23 0 0 99.924 0 290.578)"><stop offset="0" style="stop-color:#333;stop-opacity:1"/><stop offset=".03" style="stop-color:#5f5728;stop-opacity:1"/><stop offset=".06" style="stop-color:#88781e;stop-opacity:1"/><stop offset=".16" style="stop-color:#99851a;stop-opacity:1"/><stop offset=".58" style="stop-color:#f2d230;stop-opacity:1"/><stop offset="1" style="stop-color:gold;stop-opacity:1"/></linearGradient><linearGradient id="b" x1="0" y1="0" x2="1" y2="0" gradientUnits="userSpaceOnUse" gradientTransform="matrix(23 0 0 105.4 0 217.582)"><stop offset="0" style="stop-color:#333;stop-opacity:1"/><stop offset=".03" style="stop-color:#283b50;stop-opacity:1"/><stop offset=".05" style="stop-color:#1e426b;stop-opacity:1"/><stop offset=".14" style="stop-color:#1a4576;stop-opacity:1"/><stop offset=".57" style="stop-color:#116bcc;stop-opacity:1"/><stop offset="1" style="stop-color:#0057b8;stop-opacity:1"/></linearGradient></defs></svg>